<svg xmlns="http://www.w3.org/2000/svg" viewBox="0 0 64 64" fill="none">
  <defs>
    <linearGradient id="bg" x1="12" y1="10" x2="52" y2="54" gradientUnits="userSpaceOnUse">
      <stop offset="0" stop-color="#0F172A"/>
      <stop offset="1" stop-color="#1E293B"/>
    </linearGradient>
    <linearGradient id="fg" x1="18" y1="16" x2="46" y2="46" gradientUnits="userSpaceOnUse">
      <stop offset="0" stop-color="#7DD3FC"/>
      <stop offset="1" stop-color="#A78BFA"/>
    </linearGradient>
  </defs>

  <rect x="8" y="8" width="48" height="48" rx="14" fill="url(#bg)"/>

  <path
    d="M18 44V20.5C18 19.7 18.9 19.2 19.6 19.8L31 29.1C31.6 29.6 32.4 29.6 33 29.1L44.4 19.8C45.1 19.2 46 19.7 46 20.5V44H40.8V31.2C40.8 30.5 40 30.1 39.4 30.6L34 35C32.8 36 31.2 36 30 35L24.6 30.6C24 30.1 23.2 30.5 23.2 31.2V44H18Z"
    fill="url(#fg)"
  />
</svg>
